# xmcd
#
# Track frame offsets:
#	150
#	13576
#	27436
#	37749
#	53160
#	65376
#	79080
#	88539
#	97100
#	108782
#	117977
#	129542
#	145495
#	156109
#	170046
#	182680
#
# Disc length: 2619 seconds
#
# Revision: 1
# Processed by: cddbd v1.5.2PL0 Copyright (c) Steve Scherf et al.
# Submitted via: audiograbber 1.83.01
#
DISCID=d00a3910
DTITLE=Uldis Stabulnieks - Es milu dzivi skaisto
DYEAR=2012
DGENRE=Latvian popular
TTITLE0=Es milu dzivi skaisto
TTITLE1=Ka udens nemitigs
TTITLE2=Mazs putnins
TTITLE3=Melodija
TTITLE4=Mezs
TTITLE5=Par tramvaja sliedem
TTITLE6=Sieru dziesmina, dziedama ap Janiem
TTITLE7=Tango
TTITLE8=Piecas variacijas par Jana Sudrabkalna temu - Tals vakars - Variacija 1
TTITLE9=Variacija 2
TTITLE10=Variacija 3
TTITLE11=Variacija 4
TTITLE12=Variacija 5
TTITLE13=Veca, sirma Riga
TTITLE14=Zviedru vartu romance
TTITLE15=Kads smilsu graudins
EXTD=
EXTT0=
EXTT1=
EXTT2=
EXTT3=
EXTT4=
EXTT5=
EXTT6=
EXTT7=
EXTT8=
EXTT9=
EXTT10=
EXTT11=
EXTT12=
EXTT13=
EXTT14=
EXTT15=
PLAYORDER=
